<svg width="692" height="692" viewBox="0 0 692 692" fill="none" xmlns="http://www.w3.org/2000/svg">
<path d="M0.363647 37.0909H364V73.4546H436.727V109.818H545.818V73.4546H582.182V0.727295H691.273V109.818H618.545V146.182H582.182V255.273H618.545V328H654.909V691.636H582.182V618.909H509.455V582.545H473.091V546.182H436.727V509.818H400.364V473.455H364V437.091H291.273V473.455H254.909V509.818H218.545V618.909H182.182V655.273H145.818V691.636H109.455V655.273H73.0909V618.909H36.7273V582.545H0.363647V546.182H36.7273V509.818H73.0909V473.455H182.182V437.091H218.545V400.727H254.909V328H218.545V291.636H182.182V255.273H145.818V218.909H109.455V182.545H73.0909V109.818H0.363647V37.0909ZM545.818 582.545H582.182V364.364H545.818V291.636H509.455V255.273H473.091V291.636H436.727V328H400.364V364.364H364V400.727H400.364V437.091H436.727V473.455H473.091V509.818H509.455V546.182H545.818V582.545ZM400.364 182.545V146.182H327.636V109.818H109.455V146.182H145.818V182.545H182.182V218.909H218.545V255.273H254.909V291.636H291.273V328H327.636V291.636H364V255.273H400.364V218.909H436.727V182.545H400.364Z" fill="#4D4A4A"/>
</svg>
